<svg xmlns="http://www.w3.org/2000/svg" version="1.1" xmlns:xlink="http://www.w3.org/1999/xlink" xmlns:svgjs="http://svgjs.dev/svgjs" width="1000" height="1125" viewBox="0 0 1000 1125"><g transform="matrix(1,0,0,1,0,0)"><svg viewBox="0 0 320 360" data-background-color="#ffffff" preserveAspectRatio="xMidYMid meet" height="1125" width="1000" xmlns="http://www.w3.org/2000/svg" xmlns:xlink="http://www.w3.org/1999/xlink"><g id="tight-bounds" transform="matrix(1,0,0,1,0,0)"><svg viewBox="0 0 320 360" height="360" width="320"><rect width="320" height="360" fill="url(#a2a168dc-8cf8-4946-b162-8dd8e5e5fce0)" mask="url(#4bc9de24-a8e6-46d1-83b6-202004b3a21a)" data-fill-palette-color="tertiary"></rect><g><svg></svg></g><g><svg viewBox="0 0 320 360" height="360" width="320"><g><path xmlns="http://www.w3.org/2000/svg" d="M320 187.111c0-45.764-20.238-86.866-52.203-114.908-28.043-31.964-69.145-52.203-114.908-52.203-84.302 0-152.889 68.587-152.889 152.889 0 45.753 20.231 86.848 52.185 114.891 28.043 31.975 69.152 52.22 114.926 52.22 0.299 0 0.59-0.021 0.889-0.021 0.299 0 0.59 0.021 0.889 0.021 83.456 0 151.111-67.655 151.111-151.111 0-0.299-0.021-0.59-0.021-0.889 0-0.299 0.021-0.59 0.021-0.889zM59.833 263.097c-15.093-21.255-24.071-47.143-24.256-75.097 0.48-72.928 59.492-131.943 132.423-132.423 27.954 0.185 53.845 9.163 75.097 24.256 24.366 23.627 39.57 56.64 39.57 93.056 0 71.559-58.219 129.778-129.778 129.778-36.416 0-69.429-15.204-93.056-39.57zM3.556 172.889c0-82.343 66.99-149.333 149.333-149.333 35.051 0 67.292 12.167 92.8 32.462-22.98-13.824-49.863-21.796-78.578-21.796-84.302 0-152.889 68.587-152.889 152.889 0 28.708 7.968 55.584 21.785 78.56-20.288-25.5-32.452-57.739-32.451-92.782zM167.111 318.667c-35.84 0-68.363-14.418-92.107-37.743 21.952 15.89 48.864 25.298 77.885 25.298 73.522 0 133.333-59.812 133.333-133.333 0-29.02-9.408-55.932-25.298-77.885 23.324 23.744 37.742 56.267 37.743 92.107 0 72.54-59.015 131.556-131.556 131.556z" fill="url(#a2a168dc-8cf8-4946-b162-8dd8e5e5fce0)" fill-rule="nonzero" stroke="none" stroke-width="1" stroke-linecap="butt" stroke-linejoin="miter" stroke-miterlimit="10" stroke-dasharray="" stroke-dashoffset="0" font-family="none" font-weight="none" font-size="none" text-anchor="none" style="mix-blend-mode: normal" data-fill-palette-color="tertiary"></path></g><g transform="matrix(1,0,0,1,64.00000000000001,108.35016835016836)"><svg viewBox="0 0 191.99999999999997 143.29966329966328" height="143.29966329966328" width="191.99999999999997"><g><svg viewBox="0 0 191.99999999999997 143.29966329966328" height="143.29966329966328" width="191.99999999999997"><g><svg viewBox="0 0 192.00000000000003 143.2996632996633" height="143.29966329966328" width="191.99999999999997"><g><svg viewBox="0 0 192.00000000000003 143.2996632996633" height="143.2996632996633" width="192.00000000000003"><g id="textblocktransform"><svg viewBox="0 0 192.00000000000003 143.2996632996633" height="143.2996632996633" width="192.00000000000003" id="textblock"><g><svg viewBox="0 0 192.00000000000003 143.2996632996633" height="143.2996632996633" width="192.00000000000003"><g transform="matrix(1,0,0,1,0,0)"><svg width="192.00000000000003" viewBox="1 -29.700000762939453 44.54999923706055 33.25" height="143.2996632996633" data-palette-color="url(#3209849b-bf30-4279-b1a6-737227c14647)"></svg></g></svg></g></svg></g></svg></g><g></g></svg></g></svg></g></svg></g></svg></g><defs></defs><mask id="98ca2902-e0b5-4859-a243-18ee5849ffa9"><g id="SvgjsG1490"><svg viewBox="0 0 320 360" height="360" width="320"><g><svg></svg></g><g><svg viewBox="0 0 320 360" height="360" width="320"><g></g><g transform="matrix(1,0,0,1,64.00000000000001,108.35016835016836)"><svg viewBox="0 0 191.99999999999997 143.29966329966328" height="143.29966329966328" width="191.99999999999997"><g><svg viewBox="0 0 191.99999999999997 143.29966329966328" height="143.29966329966328" width="191.99999999999997"><g><svg viewBox="0 0 192.00000000000003 143.2996632996633" height="143.29966329966328" width="191.99999999999997"><g><svg viewBox="0 0 192.00000000000003 143.2996632996633" height="143.2996632996633" width="192.00000000000003"><g id="SvgjsG1489"><svg viewBox="0 0 192.00000000000003 143.2996632996633" height="143.2996632996633" width="192.00000000000003" id="SvgjsSvg1488"><g><svg viewBox="0 0 192.00000000000003 143.2996632996633" height="143.2996632996633" width="192.00000000000003"><g transform="matrix(1,0,0,1,0,0)"><svg width="192.00000000000003" viewBox="1 -29.700000762939453 44.54999923706055 33.25" height="143.2996632996633" data-palette-color="url(#3209849b-bf30-4279-b1a6-737227c14647)"><path d="M10.35 3.55L10.35 3.55Q5.85 3.55 5.85-0.2L5.85-0.2Q5.85-2.8 9.9-12.2L9.9-12.2Q14.65-23.2 15.25-26.2L15.25-26.2Q10.1-26.2 6.18-24.68 2.25-23.15 2.25-20.35L2.25-20.35Q2.25-19.6 2.65-19 3.05-18.4 3.45-18.15L3.45-18.15Q4.25-17.65 5.25-17.15L5.25-17.15Q5.85-16.7 5.45-16.6L5.45-16.6Q5.3-16.6 5.1-16.65L5.1-16.65Q3.95-16.9 2.6-18.1 1.25-19.3 1.2-20.85L1.2-20.85Q1-21.35 1-21.75L1-21.75Q1-24.15 3.23-25.8 5.45-27.45 8.22-27.93 11-28.4 12.7-28.4 14.4-28.4 15.35-28.35L15.35-28.35Q15.3-28.7 15.05-29.1 14.8-29.5 15.35-29.65L15.35-29.65Q15.4-29.65 15.5-29.65L15.5-29.65Q16-29.65 16.45-28.9L16.45-28.9 16.7-28.2Q19.55-27.8 21.45-26.95L21.45-26.95Q22.2-26.65 22.65-25.93 23.1-25.2 22.35-25.25L22.35-25.25Q21.9-25.25 20.7-25.68 19.5-26.1 16.75-26.2L16.75-26.2Q16.5-21.15 14-15.45L14-15.45Q9.2-4.25 9.2-0.3L9.2-0.3Q9.2 2.25 11.25 2.25L11.25 2.25Q13.75 2.25 18.35-1.25L18.35-1.25Q23.8-5.3 28.85-13.35L28.85-13.35Q29.5-14.4 31.3-17.35L31.3-17.35Q34.75-23.05 37.1-25.95L37.1-25.95Q38.6-27.8 40.48-28.75 42.35-29.7 43.4-29.7 44.45-29.7 45-29.43 45.55-29.15 45.55-28.93 45.55-28.7 45.3-28.7L45.3-28.7 44.75-28.75Q43.1-28.75 40.1-25.1L40.1-25.1Q38.2-22.8 34.83-18.25 31.45-13.7 29.95-11.75L29.95-11.75Q23.55-3.7 18.9-0.08 14.25 3.55 10.35 3.55Z" opacity="1" transform="matrix(1,0,0,1,0,0)" fill="white" class="wordmark-text-0" id="SvgjsPath1487"></path></svg></g></svg></g></svg></g></svg></g><g></g></svg></g></svg></g></svg></g></svg></g><defs></defs></svg></g></mask><linearGradient x1="0" x2="1" y1="0.5" y2="0.5" id="3209849b-bf30-4279-b1a6-737227c14647"><stop stop-color="#f00b51" offset="0"></stop><stop stop-color="#730062" offset="1"></stop></linearGradient><rect width="320" height="360" fill="url(#3209849b-bf30-4279-b1a6-737227c14647)" mask="url(#98ca2902-e0b5-4859-a243-18ee5849ffa9)" data-fill-palette-color="primary"></rect><mask id="4bc9de24-a8e6-46d1-83b6-202004b3a21a"><g id="SvgjsG1497"><svg viewBox="0 0 320 360" height="360" width="320"><g><svg></svg></g><g><svg viewBox="0 0 320 360" height="360" width="320"><g><path xmlns="http://www.w3.org/2000/svg" d="M320 187.111c0-45.764-20.238-86.866-52.203-114.908-28.043-31.964-69.145-52.203-114.908-52.203-84.302 0-152.889 68.587-152.889 152.889 0 45.753 20.231 86.848 52.185 114.891 28.043 31.975 69.152 52.22 114.926 52.22 0.299 0 0.59-0.021 0.889-0.021 0.299 0 0.59 0.021 0.889 0.021 83.456 0 151.111-67.655 151.111-151.111 0-0.299-0.021-0.59-0.021-0.889 0-0.299 0.021-0.59 0.021-0.889zM59.833 263.097c-15.093-21.255-24.071-47.143-24.256-75.097 0.48-72.928 59.492-131.943 132.423-132.423 27.954 0.185 53.845 9.163 75.097 24.256 24.366 23.627 39.57 56.64 39.57 93.056 0 71.559-58.219 129.778-129.778 129.778-36.416 0-69.429-15.204-93.056-39.57zM3.556 172.889c0-82.343 66.99-149.333 149.333-149.333 35.051 0 67.292 12.167 92.8 32.462-22.98-13.824-49.863-21.796-78.578-21.796-84.302 0-152.889 68.587-152.889 152.889 0 28.708 7.968 55.584 21.785 78.56-20.288-25.5-32.452-57.739-32.451-92.782zM167.111 318.667c-35.84 0-68.363-14.418-92.107-37.743 21.952 15.89 48.864 25.298 77.885 25.298 73.522 0 133.333-59.812 133.333-133.333 0-29.02-9.408-55.932-25.298-77.885 23.324 23.744 37.742 56.267 37.743 92.107 0 72.54-59.015 131.556-131.556 131.556z" fill="white" fill-rule="nonzero" stroke="none" stroke-width="1" stroke-linecap="butt" stroke-linejoin="miter" stroke-miterlimit="10" stroke-dasharray="" stroke-dashoffset="0" font-family="none" font-weight="none" font-size="none" text-anchor="none" style="mix-blend-mode: normal"></path></g><g transform="matrix(1,0,0,1,64.00000000000001,108.35016835016836)"><svg viewBox="0 0 191.99999999999997 143.29966329966328" height="143.29966329966328" width="191.99999999999997"><g><svg viewBox="0 0 191.99999999999997 143.29966329966328" height="143.29966329966328" width="191.99999999999997"><g><svg viewBox="0 0 192.00000000000003 143.2996632996633" height="143.29966329966328" width="191.99999999999997"><g><svg viewBox="0 0 192.00000000000003 143.2996632996633" height="143.2996632996633" width="192.00000000000003"><g id="SvgjsG1496"><svg viewBox="0 0 192.00000000000003 143.2996632996633" height="143.2996632996633" width="192.00000000000003" id="SvgjsSvg1495"><g><svg viewBox="0 0 192.00000000000003 143.2996632996633" height="143.2996632996633" width="192.00000000000003"><g transform="matrix(1,0,0,1,0,0)"><svg width="192.00000000000003" viewBox="1 -29.700000762939453 44.54999923706055 33.25" height="143.2996632996633" data-palette-color="url(#3209849b-bf30-4279-b1a6-737227c14647)"></svg></g></svg></g></svg></g></svg></g><g></g></svg></g></svg></g></svg></g></svg></g><defs></defs><mask><g id="SvgjsG1494"><svg viewBox="0 0 320 360" height="360" width="320"><g><svg></svg></g><g><svg viewBox="0 0 320 360" height="360" width="320"><g></g><g transform="matrix(1,0,0,1,64.00000000000001,108.35016835016836)"><svg viewBox="0 0 191.99999999999997 143.29966329966328" height="143.29966329966328" width="191.99999999999997"><g><svg viewBox="0 0 191.99999999999997 143.29966329966328" height="143.29966329966328" width="191.99999999999997"><g><svg viewBox="0 0 192.00000000000003 143.2996632996633" height="143.29966329966328" width="191.99999999999997"><g><svg viewBox="0 0 192.00000000000003 143.2996632996633" height="143.2996632996633" width="192.00000000000003"><g id="SvgjsG1493"><svg viewBox="0 0 192.00000000000003 143.2996632996633" height="143.2996632996633" width="192.00000000000003" id="SvgjsSvg1492"><g><svg viewBox="0 0 192.00000000000003 143.2996632996633" height="143.2996632996633" width="192.00000000000003"><g transform="matrix(1,0,0,1,0,0)"><svg width="192.00000000000003" viewBox="1 -29.700000762939453 44.54999923706055 33.25" height="143.2996632996633" data-palette-color="url(#3209849b-bf30-4279-b1a6-737227c14647)"></svg></g></svg></g></svg></g></svg></g><g></g></svg></g></svg></g></svg></g></svg></g><defs></defs></svg></g></mask></svg></g></mask><linearGradient x1="0" x2="1" y1="0.5" y2="0.5" id="a2a168dc-8cf8-4946-b162-8dd8e5e5fce0"><stop stop-color="#ffa62e" offset="0"></stop><stop stop-color="#f71b3d" offset="1"></stop></linearGradient></svg><rect width="320" height="360" fill="none" stroke="none" visibility="hidden"></rect></g></svg></g></svg>